<svg width="157" height="24" viewBox="0 0 157 24" fill="none" xmlns="http://www.w3.org/2000/svg">
<path d="M3.33786e-06 18.888V2.088H7.272C8.776 2.088 10.072 2.336 11.16 2.832C12.248 3.312 13.088 4.008 13.68 4.92C14.272 5.832 14.568 6.92 14.568 8.184C14.568 9.432 14.272 10.512 13.68 11.424C13.088 12.336 12.248 13.04 11.16 13.536C10.072 14.016 8.776 14.256 7.272 14.256H2.16L3.888 12.504V18.888H3.33786e-06ZM3.888 12.936L2.16 11.088H7.056C8.256 11.088 9.152 10.832 9.744 10.32C10.336 9.808 10.632 9.096 10.632 8.184C10.632 7.256 10.336 6.536 9.744 6.024C9.152 5.512 8.256 5.256 7.056 5.256H2.16L3.888 3.408V12.936ZM17.3141 18.888V5.976H21.0581V18.888H17.3141ZM19.1861 4.176C18.4981 4.176 17.9381 3.976 17.5061 3.576C17.0741 3.176 16.8581 2.68 16.8581 2.088C16.8581 1.496 17.0741 1 17.5061 0.6C17.9381 0.199999 18.4981 -9.53674e-07 19.1861 -9.53674e-07C19.8741 -9.53674e-07 20.4341 0.191999 20.8661 0.576C21.2981 0.944 21.5141 1.424 21.5141 2.016C21.5141 2.64 21.2981 3.16 20.8661 3.576C20.4501 3.976 19.8901 4.176 19.1861 4.176ZM23.6449 18.888V16.632L31.2769 7.608L31.9249 8.856H23.8129V5.976H34.9489V8.232L27.3169 17.256L26.6449 16.008H35.1649V18.888H23.6449ZM36.6761 18.888V16.632L44.3081 7.608L44.9561 8.856H36.8441V5.976H47.9801V8.232L40.3481 17.256L39.6761 16.008H48.1961V18.888H36.6761ZM58.5154 18.888V16.368L58.2754 15.816V11.304C58.2754 10.504 58.0274 9.88 57.5314 9.432C57.0514 8.984 56.3074 8.76 55.2994 8.76C54.6114 8.76 53.9314 8.872 53.2594 9.096C52.6034 9.304 52.0434 9.592 51.5794 9.96L50.2354 7.344C50.9394 6.848 51.7874 6.464 52.7794 6.192C53.7714 5.92 54.7794 5.784 55.8034 5.784C57.7714 5.784 59.2994 6.248 60.3874 7.176C61.4754 8.104 62.0194 9.552 62.0194 11.52V18.888H58.5154ZM54.5794 19.08C53.5714 19.08 52.7074 18.912 51.9874 18.576C51.2674 18.224 50.7154 17.752 50.3314 17.16C49.9474 16.568 49.7554 15.904 49.7554 15.168C49.7554 14.4 49.9394 13.728 50.3074 13.152C50.6914 12.576 51.2914 12.128 52.1074 11.808C52.9234 11.472 53.9874 11.304 55.2994 11.304H58.7314V13.488H55.7074C54.8274 13.488 54.2194 13.632 53.8834 13.92C53.5634 14.208 53.4034 14.568 53.4034 15C53.4034 15.48 53.5874 15.864 53.9554 16.152C54.3394 16.424 54.8594 16.56 55.5154 16.56C56.1394 16.56 56.6994 16.416 57.1954 16.128C57.6914 15.824 58.0514 15.384 58.2754 14.808L58.8514 16.536C58.5794 17.368 58.0834 18 57.3634 18.432C56.6434 18.864 55.7154 19.08 54.5794 19.08Z" fill="#A81817"/>
<path d="M65.6719 18.888V2.088H73.3039C75.1279 2.088 76.7359 2.44 78.1279 3.144C79.5199 3.832 80.6079 4.8 81.3919 6.048C82.1759 7.296 82.5679 8.776 82.5679 10.488C82.5679 12.184 82.1759 13.664 81.3919 14.928C80.6079 16.176 79.5199 17.152 78.1279 17.856C76.7359 18.544 75.1279 18.888 73.3039 18.888H65.6719ZM69.5599 15.696H73.1119C74.2319 15.696 75.1999 15.488 76.0159 15.072C76.8479 14.64 77.4879 14.032 77.9359 13.248C78.3999 12.464 78.6319 11.544 78.6319 10.488C78.6319 9.416 78.3999 8.496 77.9359 7.728C77.4879 6.944 76.8479 6.344 76.0159 5.928C75.1999 5.496 74.2319 5.28 73.1119 5.28H69.5599V15.696ZM91.644 19.08C90.172 19.08 88.876 18.792 87.756 18.216C86.652 17.64 85.796 16.856 85.188 15.864C84.58 14.856 84.276 13.712 84.276 12.432C84.276 11.136 84.572 9.992 85.164 9C85.772 7.992 86.596 7.208 87.636 6.648C88.676 6.072 89.852 5.784 91.164 5.784C92.428 5.784 93.564 6.056 94.572 6.6C95.596 7.128 96.404 7.896 96.996 8.904C97.588 9.896 97.884 11.088 97.884 12.48C97.884 12.624 97.876 12.792 97.86 12.984C97.844 13.16 97.828 13.328 97.812 13.488H87.324V11.304H95.844L94.404 11.952C94.404 11.28 94.268 10.696 93.996 10.2C93.724 9.704 93.348 9.32 92.868 9.048C92.388 8.76 91.828 8.616 91.188 8.616C90.548 8.616 89.98 8.76 89.484 9.048C89.004 9.32 88.628 9.712 88.356 10.224C88.084 10.72 87.948 11.312 87.948 12V12.576C87.948 13.28 88.1 13.904 88.404 14.448C88.724 14.976 89.164 15.384 89.724 15.672C90.3 15.944 90.972 16.08 91.74 16.08C92.428 16.08 93.028 15.976 93.54 15.768C94.068 15.56 94.548 15.248 94.98 14.832L96.972 16.992C96.38 17.664 95.636 18.184 94.74 18.552C93.844 18.904 92.812 19.08 91.644 19.08ZM100.377 18.888V1.08H104.121V18.888H100.377ZM107.595 18.888V5.976H111.339V18.888H107.595ZM109.467 4.176C108.779 4.176 108.219 3.976 107.787 3.576C107.355 3.176 107.139 2.68 107.139 2.088C107.139 1.496 107.355 1 107.787 0.6C108.219 0.199999 108.779 -9.53674e-07 109.467 -9.53674e-07C110.155 -9.53674e-07 110.715 0.191999 111.147 0.576C111.579 0.944 111.795 1.424 111.795 2.016C111.795 2.64 111.579 3.16 111.147 3.576C110.731 3.976 110.171 4.176 109.467 4.176ZM120.886 23.736C119.67 23.736 118.494 23.584 117.358 23.28C116.238 22.992 115.302 22.552 114.55 21.96L116.038 19.272C116.582 19.72 117.27 20.072 118.102 20.328C118.95 20.6 119.782 20.736 120.598 20.736C121.926 20.736 122.886 20.44 123.478 19.848C124.086 19.256 124.39 18.376 124.39 17.208V15.264L124.63 12.024L124.582 8.76V5.976H128.134V16.728C128.134 19.128 127.51 20.896 126.262 22.032C125.014 23.168 123.222 23.736 120.886 23.736ZM120.31 18.264C119.11 18.264 118.022 18.008 117.046 17.496C116.086 16.968 115.31 16.24 114.718 15.312C114.142 14.368 113.854 13.272 113.854 12.024C113.854 10.76 114.142 9.664 114.718 8.736C115.31 7.792 116.086 7.064 117.046 6.552C118.022 6.04 119.11 5.784 120.31 5.784C121.398 5.784 122.358 6.008 123.19 6.456C124.022 6.888 124.67 7.568 125.134 8.496C125.598 9.408 125.83 10.584 125.83 12.024C125.83 13.448 125.598 14.624 125.134 15.552C124.67 16.464 124.022 17.144 123.19 17.592C122.358 18.04 121.398 18.264 120.31 18.264ZM121.054 15.192C121.71 15.192 122.294 15.064 122.806 14.808C123.318 14.536 123.718 14.16 124.006 13.68C124.294 13.2 124.438 12.648 124.438 12.024C124.438 11.384 124.294 10.832 124.006 10.368C123.718 9.888 123.318 9.52 122.806 9.264C122.294 8.992 121.71 8.856 121.054 8.856C120.398 8.856 119.814 8.992 119.302 9.264C118.79 9.52 118.382 9.888 118.078 10.368C117.79 10.832 117.646 11.384 117.646 12.024C117.646 12.648 117.79 13.2 118.078 13.68C118.382 14.16 118.79 14.536 119.302 14.808C119.814 15.064 120.398 15.192 121.054 15.192ZM139.467 5.784C140.491 5.784 141.403 5.992 142.203 6.408C143.019 6.808 143.659 7.432 144.123 8.28C144.587 9.112 144.819 10.184 144.819 11.496V18.888H141.075V12.072C141.075 11.032 140.843 10.264 140.379 9.768C139.931 9.272 139.291 9.024 138.459 9.024C137.867 9.024 137.331 9.152 136.851 9.408C136.387 9.648 136.019 10.024 135.747 10.536C135.491 11.048 135.363 11.704 135.363 12.504V18.888H131.619V1.08H135.363V9.552L134.523 8.472C134.987 7.608 135.651 6.944 136.515 6.48C137.379 6.016 138.363 5.784 139.467 5.784ZM153.493 19.08C151.973 19.08 150.789 18.696 149.941 17.928C149.093 17.144 148.669 15.984 148.669 14.448V3.12H152.413V14.4C152.413 14.944 152.557 15.368 152.845 15.672C153.133 15.96 153.525 16.104 154.021 16.104C154.613 16.104 155.117 15.944 155.533 15.624L156.541 18.264C156.157 18.536 155.693 18.744 155.149 18.888C154.621 19.016 154.069 19.08 153.493 19.08ZM146.677 9.144V6.264H155.629V9.144H146.677Z" fill="#3D5A2B"/>
</svg>
